<mxfile host="app.diagrams.net" modified="2023-06-30T01:11:12.915Z" agent="Mozilla/5.0 (Windows NT 10.0; Win64; x64) AppleWebKit/537.36 (KHTML, like Gecko) Chrome/114.0.0.0 Safari/537.36" etag="tuV92ztcOF-sIEgEYkGI" version="21.5.2" type="github">
  <diagram name="PÃ¡gina-1" id="qoe8vgORaRIKNoJuuk16">
    <mxGraphModel dx="794" dy="738" grid="1" gridSize="10" guides="1" tooltips="1" connect="1" arrows="1" fold="1" page="1" pageScale="1" pageWidth="850" pageHeight="1100" math="0" shadow="0">
      <root>
        <mxCell id="0" />
        <mxCell id="1" parent="0" />
        <mxCell id="eTYiFXuetqOa6vKXWHsb-16" value="" style="rounded=0;whiteSpace=wrap;html=1;" vertex="1" parent="1">
          <mxGeometry x="210" y="50" width="350" height="460" as="geometry" />
        </mxCell>
        <mxCell id="eTYiFXuetqOa6vKXWHsb-1" value="&lt;font style=&quot;vertical-align: inherit;&quot;&gt;&lt;font style=&quot;vertical-align: inherit;&quot;&gt;Estudiante&lt;/font&gt;&lt;/font&gt;" style="shape=umlActor;verticalLabelPosition=bottom;verticalAlign=top;html=1;" vertex="1" parent="1">
          <mxGeometry x="130" y="160" width="30" height="60" as="geometry" />
        </mxCell>
        <mxCell id="eTYiFXuetqOa6vKXWHsb-2" value="&lt;font style=&quot;vertical-align: inherit;&quot;&gt;&lt;font style=&quot;vertical-align: inherit;&quot;&gt;Secretaria&lt;/font&gt;&lt;/font&gt;" style="shape=umlActor;verticalLabelPosition=bottom;verticalAlign=top;html=1;" vertex="1" parent="1">
          <mxGeometry x="610" y="70" width="30" height="60" as="geometry" />
        </mxCell>
        <mxCell id="eTYiFXuetqOa6vKXWHsb-3" value="&lt;font style=&quot;vertical-align: inherit;&quot;&gt;&lt;font style=&quot;vertical-align: inherit;&quot;&gt;Siceu&lt;/font&gt;&lt;/font&gt;" style="shape=umlActor;verticalLabelPosition=bottom;verticalAlign=top;html=1;" vertex="1" parent="1">
          <mxGeometry x="600" y="340" width="30" height="60" as="geometry" />
        </mxCell>
        <mxCell id="eTYiFXuetqOa6vKXWHsb-4" value="Use Case" style="ellipse;whiteSpace=wrap;html=1;" vertex="1" parent="1">
          <mxGeometry x="225" y="70" width="100" height="50" as="geometry" />
        </mxCell>
        <mxCell id="eTYiFXuetqOa6vKXWHsb-5" value="Use Case" style="ellipse;whiteSpace=wrap;html=1;" vertex="1" parent="1">
          <mxGeometry x="230" y="150" width="110" height="50" as="geometry" />
        </mxCell>
        <mxCell id="eTYiFXuetqOa6vKXWHsb-6" value="Use Case" style="ellipse;whiteSpace=wrap;html=1;" vertex="1" parent="1">
          <mxGeometry x="240" y="230" width="110" height="50" as="geometry" />
        </mxCell>
        <mxCell id="eTYiFXuetqOa6vKXWHsb-7" value="Use Case" style="ellipse;whiteSpace=wrap;html=1;" vertex="1" parent="1">
          <mxGeometry x="410" y="240" width="110" height="50" as="geometry" />
        </mxCell>
        <mxCell id="eTYiFXuetqOa6vKXWHsb-8" value="Use Case" style="ellipse;whiteSpace=wrap;html=1;" vertex="1" parent="1">
          <mxGeometry x="410" y="310" width="110" height="50" as="geometry" />
        </mxCell>
        <mxCell id="eTYiFXuetqOa6vKXWHsb-9" value="Use Case" style="ellipse;whiteSpace=wrap;html=1;" vertex="1" parent="1">
          <mxGeometry x="440" y="60" width="110" height="50" as="geometry" />
        </mxCell>
        <mxCell id="eTYiFXuetqOa6vKXWHsb-10" value="Use Case" style="ellipse;whiteSpace=wrap;html=1;" vertex="1" parent="1">
          <mxGeometry x="410" y="380" width="110" height="50" as="geometry" />
        </mxCell>
        <mxCell id="eTYiFXuetqOa6vKXWHsb-11" value="Use Case" style="ellipse;whiteSpace=wrap;html=1;" vertex="1" parent="1">
          <mxGeometry x="410" y="450" width="110" height="50" as="geometry" />
        </mxCell>
        <mxCell id="eTYiFXuetqOa6vKXWHsb-12" value="Use Case" style="ellipse;whiteSpace=wrap;html=1;" vertex="1" parent="1">
          <mxGeometry x="230" y="300" width="110" height="50" as="geometry" />
        </mxCell>
      </root>
    </mxGraphModel>
  </diagram>
</mxfile>
